<svg width="17" height="16" viewBox="0 0 17 16" fill="none" xmlns="http://www.w3.org/2000/svg">
<path d="M1.50787 8.61537H12.6779L7.79787 13.4954C7.40787 13.8854 7.40787 14.5254 7.79787 14.9154C8.18787 15.3054 8.81787 15.3054 9.20787 14.9154L15.7979 8.32537C16.1879 7.93537 16.1879 7.30537 15.7979 6.91537L9.21787 0.315374C9.03104 0.128121 8.77739 0.0228882 8.51287 0.0228882C8.24836 0.0228882 7.99471 0.128121 7.80787 0.315374C7.41787 0.705374 7.41787 1.33537 7.80787 1.72537L12.6779 6.61537H1.50787C0.957874 6.61537 0.507874 7.06537 0.507874 7.61537C0.507874 8.16537 0.957874 8.61537 1.50787 8.61537Z" fill="#37474F"/>
</svg>
